<mxfile host="Electron" modified="2024-04-03T19:17:28.168Z" agent="Mozilla/5.0 (Windows NT 10.0; Win64; x64) AppleWebKit/537.36 (KHTML, like Gecko) draw.io/24.1.0 Chrome/120.0.6099.109 Electron/28.1.0 Safari/537.36" etag="V0omuMmfuqJVYeapa6gv" version="24.1.0" type="device">
  <diagram id="R2lEEEUBdFMjLlhIrx00" name="Page-1">
    <mxGraphModel dx="4947" dy="3489" grid="1" gridSize="10" guides="1" tooltips="1" connect="1" arrows="1" fold="1" page="1" pageScale="1" pageWidth="850" pageHeight="1100" math="0" shadow="0" extFonts="Permanent Marker^https://fonts.googleapis.com/css?family=Permanent+Marker">
      <root>
        <mxCell id="0" />
        <mxCell id="1" parent="0" />
        <mxCell id="rFGjbduHnqt6QD3G2l7F-168" value="Azure" style="rounded=1;whiteSpace=wrap;html=1;align=left;fillColor=#006600;fontColor=#ffffff;strokeColor=#314354;horizontal=1;verticalAlign=top;fontSize=27;fontStyle=5;spacingTop=0;spacing=82;" vertex="1" parent="1">
          <mxGeometry x="1590" y="-40" width="2320" height="810" as="geometry" />
        </mxCell>
        <mxCell id="rFGjbduHnqt6QD3G2l7F-81" value="Unity" style="rounded=1;whiteSpace=wrap;html=1;align=left;fillColor=#647687;fontColor=#ffffff;strokeColor=#314354;horizontal=1;verticalAlign=top;fontSize=27;fontStyle=5;spacingTop=0;spacing=45;" vertex="1" parent="1">
          <mxGeometry x="-320" y="20" width="1530" height="830" as="geometry" />
        </mxCell>
        <mxCell id="rFGjbduHnqt6QD3G2l7F-2" value="IDataHandler" style="swimlane;fontStyle=0;childLayout=stackLayout;horizontal=1;startSize=26;fillColor=none;horizontalStack=0;resizeParent=1;resizeParentMax=0;resizeLast=0;collapsible=1;marginBottom=0;whiteSpace=wrap;html=1;" vertex="1" parent="1">
          <mxGeometry x="450" y="210" width="140" height="52" as="geometry" />
        </mxCell>
        <mxCell id="rFGjbduHnqt6QD3G2l7F-5" value="--------------------------------" style="text;strokeColor=none;fillColor=none;align=left;verticalAlign=top;spacingLeft=4;spacingRight=4;overflow=hidden;rotatable=0;points=[[0,0.5],[1,0.5]];portConstraint=eastwest;whiteSpace=wrap;html=1;" vertex="1" parent="rFGjbduHnqt6QD3G2l7F-2">
          <mxGeometry y="26" width="140" height="26" as="geometry" />
        </mxCell>
        <mxCell id="rFGjbduHnqt6QD3G2l7F-6" value="Plant" style="swimlane;fontStyle=0;childLayout=stackLayout;horizontal=1;startSize=26;fillColor=none;horizontalStack=0;resizeParent=1;resizeParentMax=0;resizeLast=0;collapsible=1;marginBottom=0;whiteSpace=wrap;html=1;" vertex="1" parent="1">
          <mxGeometry x="260" y="270" width="140" height="52" as="geometry" />
        </mxCell>
        <mxCell id="rFGjbduHnqt6QD3G2l7F-7" value="--------------------------------" style="text;strokeColor=none;fillColor=none;align=left;verticalAlign=top;spacingLeft=4;spacingRight=4;overflow=hidden;rotatable=0;points=[[0,0.5],[1,0.5]];portConstraint=eastwest;whiteSpace=wrap;html=1;" vertex="1" parent="rFGjbduHnqt6QD3G2l7F-6">
          <mxGeometry y="26" width="140" height="26" as="geometry" />
        </mxCell>
        <mxCell id="rFGjbduHnqt6QD3G2l7F-8" value="TelemetryData" style="swimlane;fontStyle=0;childLayout=stackLayout;horizontal=1;startSize=26;fillColor=none;horizontalStack=0;resizeParent=1;resizeParentMax=0;resizeLast=0;collapsible=1;marginBottom=0;whiteSpace=wrap;html=1;" vertex="1" parent="1">
          <mxGeometry x="260" y="150" width="140" height="52" as="geometry">
            <mxRectangle x="240" y="200" width="120" height="30" as="alternateBounds" />
          </mxGeometry>
        </mxCell>
        <mxCell id="rFGjbduHnqt6QD3G2l7F-9" value="--------------------------------" style="text;strokeColor=none;fillColor=none;align=left;verticalAlign=top;spacingLeft=4;spacingRight=4;overflow=hidden;rotatable=0;points=[[0,0.5],[1,0.5]];portConstraint=eastwest;whiteSpace=wrap;html=1;" vertex="1" parent="rFGjbduHnqt6QD3G2l7F-8">
          <mxGeometry y="26" width="140" height="26" as="geometry" />
        </mxCell>
        <mxCell id="rFGjbduHnqt6QD3G2l7F-10" value="Sensor" style="swimlane;fontStyle=0;childLayout=stackLayout;horizontal=1;startSize=26;fillColor=none;horizontalStack=0;resizeParent=1;resizeParentMax=0;resizeLast=0;collapsible=1;marginBottom=0;whiteSpace=wrap;html=1;" vertex="1" parent="1">
          <mxGeometry x="260" y="210" width="140" height="52" as="geometry" />
        </mxCell>
        <mxCell id="rFGjbduHnqt6QD3G2l7F-11" value="--------------------------------" style="text;strokeColor=none;fillColor=none;align=left;verticalAlign=top;spacingLeft=4;spacingRight=4;overflow=hidden;rotatable=0;points=[[0,0.5],[1,0.5]];portConstraint=eastwest;whiteSpace=wrap;html=1;" vertex="1" parent="rFGjbduHnqt6QD3G2l7F-10">
          <mxGeometry y="26" width="140" height="26" as="geometry" />
        </mxCell>
        <mxCell id="rFGjbduHnqt6QD3G2l7F-15" value="Interactor_AzureDB" style="swimlane;fontStyle=0;childLayout=stackLayout;horizontal=1;startSize=26;fillColor=none;horizontalStack=0;resizeParent=1;resizeParentMax=0;resizeLast=0;collapsible=1;marginBottom=0;whiteSpace=wrap;html=1;" vertex="1" parent="1">
          <mxGeometry x="260" y="540" width="140" height="52" as="geometry" />
        </mxCell>
        <mxCell id="rFGjbduHnqt6QD3G2l7F-16" value="--------------------------------" style="text;strokeColor=none;fillColor=none;align=left;verticalAlign=top;spacingLeft=4;spacingRight=4;overflow=hidden;rotatable=0;points=[[0,0.5],[1,0.5]];portConstraint=eastwest;whiteSpace=wrap;html=1;" vertex="1" parent="rFGjbduHnqt6QD3G2l7F-15">
          <mxGeometry y="26" width="140" height="26" as="geometry" />
        </mxCell>
        <mxCell id="rFGjbduHnqt6QD3G2l7F-18" value="DRU_Sensors" style="swimlane;fontStyle=0;childLayout=stackLayout;horizontal=1;startSize=26;fillColor=none;horizontalStack=0;resizeParent=1;resizeParentMax=0;resizeLast=0;collapsible=1;marginBottom=0;whiteSpace=wrap;html=1;" vertex="1" parent="1">
          <mxGeometry x="260" y="390" width="140" height="52" as="geometry" />
        </mxCell>
        <mxCell id="rFGjbduHnqt6QD3G2l7F-19" value="--------------------------------" style="text;strokeColor=none;fillColor=none;align=left;verticalAlign=top;spacingLeft=4;spacingRight=4;overflow=hidden;rotatable=0;points=[[0,0.5],[1,0.5]];portConstraint=eastwest;whiteSpace=wrap;html=1;" vertex="1" parent="rFGjbduHnqt6QD3G2l7F-18">
          <mxGeometry y="26" width="140" height="26" as="geometry" />
        </mxCell>
        <mxCell id="rFGjbduHnqt6QD3G2l7F-23" value="monobehaviour" style="swimlane;fontStyle=0;childLayout=stackLayout;horizontal=1;startSize=26;fillColor=none;horizontalStack=0;resizeParent=1;resizeParentMax=0;resizeLast=0;collapsible=1;marginBottom=0;whiteSpace=wrap;html=1;" vertex="1" parent="1">
          <mxGeometry x="450" y="390" width="140" height="52" as="geometry" />
        </mxCell>
        <mxCell id="rFGjbduHnqt6QD3G2l7F-24" value="--------------------------------" style="text;strokeColor=none;fillColor=none;align=left;verticalAlign=top;spacingLeft=4;spacingRight=4;overflow=hidden;rotatable=0;points=[[0,0.5],[1,0.5]];portConstraint=eastwest;whiteSpace=wrap;html=1;" vertex="1" parent="rFGjbduHnqt6QD3G2l7F-23">
          <mxGeometry y="26" width="140" height="26" as="geometry" />
        </mxCell>
        <mxCell id="rFGjbduHnqt6QD3G2l7F-26" value="" style="endArrow=classic;html=1;rounded=0;" edge="1" parent="1" source="rFGjbduHnqt6QD3G2l7F-23" target="rFGjbduHnqt6QD3G2l7F-18">
          <mxGeometry width="50" height="50" relative="1" as="geometry">
            <mxPoint x="390" y="500" as="sourcePoint" />
            <mxPoint x="440" y="450" as="targetPoint" />
          </mxGeometry>
        </mxCell>
        <mxCell id="rFGjbduHnqt6QD3G2l7F-27" value="" style="endArrow=classic;html=1;rounded=0;" edge="1" parent="1" source="rFGjbduHnqt6QD3G2l7F-2" target="rFGjbduHnqt6QD3G2l7F-6">
          <mxGeometry width="50" height="50" relative="1" as="geometry">
            <mxPoint x="390" y="500" as="sourcePoint" />
            <mxPoint x="440" y="450" as="targetPoint" />
            <Array as="points">
              <mxPoint x="520" y="296" />
            </Array>
          </mxGeometry>
        </mxCell>
        <mxCell id="rFGjbduHnqt6QD3G2l7F-28" value="" style="endArrow=classic;html=1;rounded=0;" edge="1" parent="1" source="rFGjbduHnqt6QD3G2l7F-2" target="rFGjbduHnqt6QD3G2l7F-10">
          <mxGeometry width="50" height="50" relative="1" as="geometry">
            <mxPoint x="390" y="500" as="sourcePoint" />
            <mxPoint x="460" y="320" as="targetPoint" />
          </mxGeometry>
        </mxCell>
        <mxCell id="rFGjbduHnqt6QD3G2l7F-29" value="" style="endArrow=classic;html=1;rounded=0;" edge="1" parent="1" source="rFGjbduHnqt6QD3G2l7F-2" target="rFGjbduHnqt6QD3G2l7F-8">
          <mxGeometry width="50" height="50" relative="1" as="geometry">
            <mxPoint x="390" y="500" as="sourcePoint" />
            <mxPoint x="440" y="450" as="targetPoint" />
            <Array as="points">
              <mxPoint x="520" y="176" />
            </Array>
          </mxGeometry>
        </mxCell>
        <mxCell id="rFGjbduHnqt6QD3G2l7F-30" value="IInteractor" style="swimlane;fontStyle=0;childLayout=stackLayout;horizontal=1;startSize=26;fillColor=none;horizontalStack=0;resizeParent=1;resizeParentMax=0;resizeLast=0;collapsible=1;marginBottom=0;whiteSpace=wrap;html=1;" vertex="1" parent="1">
          <mxGeometry x="450" y="620" width="140" height="52" as="geometry" />
        </mxCell>
        <mxCell id="rFGjbduHnqt6QD3G2l7F-31" value="--------------------------------" style="text;strokeColor=none;fillColor=none;align=left;verticalAlign=top;spacingLeft=4;spacingRight=4;overflow=hidden;rotatable=0;points=[[0,0.5],[1,0.5]];portConstraint=eastwest;whiteSpace=wrap;html=1;" vertex="1" parent="rFGjbduHnqt6QD3G2l7F-30">
          <mxGeometry y="26" width="140" height="26" as="geometry" />
        </mxCell>
        <mxCell id="rFGjbduHnqt6QD3G2l7F-32" value="" style="endArrow=classic;html=1;rounded=0;" edge="1" parent="1" source="rFGjbduHnqt6QD3G2l7F-30" target="rFGjbduHnqt6QD3G2l7F-15">
          <mxGeometry width="50" height="50" relative="1" as="geometry">
            <mxPoint x="390" y="500" as="sourcePoint" />
            <mxPoint x="440" y="450" as="targetPoint" />
            <Array as="points">
              <mxPoint x="520" y="566" />
            </Array>
          </mxGeometry>
        </mxCell>
        <mxCell id="rFGjbduHnqt6QD3G2l7F-33" value="" style="endArrow=classic;html=1;rounded=0;" edge="1" parent="1" source="rFGjbduHnqt6QD3G2l7F-2" target="rFGjbduHnqt6QD3G2l7F-30">
          <mxGeometry width="50" height="50" relative="1" as="geometry">
            <mxPoint x="390" y="500" as="sourcePoint" />
            <mxPoint x="440" y="450" as="targetPoint" />
            <Array as="points">
              <mxPoint x="670" y="236" />
              <mxPoint x="670" y="646" />
            </Array>
          </mxGeometry>
        </mxCell>
        <mxCell id="rFGjbduHnqt6QD3G2l7F-34" value="" style="endArrow=diamondThin;endFill=0;endSize=24;html=1;rounded=0;entryX=0;entryY=0;entryDx=0;entryDy=0;" edge="1" parent="1" source="rFGjbduHnqt6QD3G2l7F-10" target="rFGjbduHnqt6QD3G2l7F-18">
          <mxGeometry width="160" relative="1" as="geometry">
            <mxPoint x="330" y="470" as="sourcePoint" />
            <mxPoint x="490" y="470" as="targetPoint" />
            <Array as="points">
              <mxPoint x="160" y="236" />
              <mxPoint x="160" y="390" />
            </Array>
          </mxGeometry>
        </mxCell>
        <mxCell id="rFGjbduHnqt6QD3G2l7F-35" value="" style="endArrow=diamondThin;endFill=0;endSize=24;html=1;rounded=0;" edge="1" parent="1" source="rFGjbduHnqt6QD3G2l7F-8" target="rFGjbduHnqt6QD3G2l7F-18">
          <mxGeometry width="160" relative="1" as="geometry">
            <mxPoint x="330" y="470" as="sourcePoint" />
            <mxPoint x="490" y="470" as="targetPoint" />
            <Array as="points">
              <mxPoint x="120" y="176" />
              <mxPoint x="120" y="416" />
            </Array>
          </mxGeometry>
        </mxCell>
        <mxCell id="rFGjbduHnqt6QD3G2l7F-36" value="" style="endArrow=diamondThin;endFill=0;endSize=24;html=1;rounded=0;" edge="1" parent="1" source="rFGjbduHnqt6QD3G2l7F-18" target="rFGjbduHnqt6QD3G2l7F-15">
          <mxGeometry width="160" relative="1" as="geometry">
            <mxPoint x="330" y="470" as="sourcePoint" />
            <mxPoint x="290" y="480" as="targetPoint" />
          </mxGeometry>
        </mxCell>
        <mxCell id="rFGjbduHnqt6QD3G2l7F-37" value="Interactor_Dummy" style="swimlane;fontStyle=0;childLayout=stackLayout;horizontal=1;startSize=26;fillColor=none;horizontalStack=0;resizeParent=1;resizeParentMax=0;resizeLast=0;collapsible=1;marginBottom=0;whiteSpace=wrap;html=1;" vertex="1" parent="1">
          <mxGeometry x="260" y="620" width="140" height="52" as="geometry" />
        </mxCell>
        <mxCell id="rFGjbduHnqt6QD3G2l7F-38" value="--------------------------------" style="text;strokeColor=none;fillColor=none;align=left;verticalAlign=top;spacingLeft=4;spacingRight=4;overflow=hidden;rotatable=0;points=[[0,0.5],[1,0.5]];portConstraint=eastwest;whiteSpace=wrap;html=1;" vertex="1" parent="rFGjbduHnqt6QD3G2l7F-37">
          <mxGeometry y="26" width="140" height="26" as="geometry" />
        </mxCell>
        <mxCell id="rFGjbduHnqt6QD3G2l7F-40" value="" style="endArrow=classic;html=1;rounded=0;" edge="1" parent="1" source="rFGjbduHnqt6QD3G2l7F-30" target="rFGjbduHnqt6QD3G2l7F-37">
          <mxGeometry width="50" height="50" relative="1" as="geometry">
            <mxPoint x="330" y="560" as="sourcePoint" />
            <mxPoint x="380" y="510" as="targetPoint" />
          </mxGeometry>
        </mxCell>
        <mxCell id="rFGjbduHnqt6QD3G2l7F-41" value="Interactor_Network" style="swimlane;fontStyle=0;childLayout=stackLayout;horizontal=1;startSize=26;fillColor=none;horizontalStack=0;resizeParent=1;resizeParentMax=0;resizeLast=0;collapsible=1;marginBottom=0;whiteSpace=wrap;html=1;" vertex="1" parent="1">
          <mxGeometry x="260" y="700" width="140" height="52" as="geometry" />
        </mxCell>
        <mxCell id="rFGjbduHnqt6QD3G2l7F-42" value="--------------------------------" style="text;strokeColor=none;fillColor=none;align=left;verticalAlign=top;spacingLeft=4;spacingRight=4;overflow=hidden;rotatable=0;points=[[0,0.5],[1,0.5]];portConstraint=eastwest;whiteSpace=wrap;html=1;" vertex="1" parent="rFGjbduHnqt6QD3G2l7F-41">
          <mxGeometry y="26" width="140" height="26" as="geometry" />
        </mxCell>
        <mxCell id="rFGjbduHnqt6QD3G2l7F-43" value="" style="endArrow=classic;html=1;rounded=0;" edge="1" parent="1" source="rFGjbduHnqt6QD3G2l7F-30" target="rFGjbduHnqt6QD3G2l7F-41">
          <mxGeometry width="50" height="50" relative="1" as="geometry">
            <mxPoint x="330" y="560" as="sourcePoint" />
            <mxPoint x="380" y="510" as="targetPoint" />
            <Array as="points">
              <mxPoint x="520" y="726" />
            </Array>
          </mxGeometry>
        </mxCell>
        <mxCell id="rFGjbduHnqt6QD3G2l7F-44" value="DR_AzureDB" style="swimlane;fontStyle=0;childLayout=stackLayout;horizontal=1;startSize=26;fillColor=none;horizontalStack=0;resizeParent=1;resizeParentMax=0;resizeLast=0;collapsible=1;marginBottom=0;whiteSpace=wrap;html=1;" vertex="1" parent="1">
          <mxGeometry x="10" y="540" width="140" height="52" as="geometry" />
        </mxCell>
        <mxCell id="rFGjbduHnqt6QD3G2l7F-45" value="--------------------------------" style="text;strokeColor=none;fillColor=none;align=left;verticalAlign=top;spacingLeft=4;spacingRight=4;overflow=hidden;rotatable=0;points=[[0,0.5],[1,0.5]];portConstraint=eastwest;whiteSpace=wrap;html=1;" vertex="1" parent="rFGjbduHnqt6QD3G2l7F-44">
          <mxGeometry y="26" width="140" height="26" as="geometry" />
        </mxCell>
        <mxCell id="rFGjbduHnqt6QD3G2l7F-46" value="" style="endArrow=diamondThin;endFill=0;endSize=24;html=1;rounded=0;" edge="1" parent="1" source="rFGjbduHnqt6QD3G2l7F-15" target="rFGjbduHnqt6QD3G2l7F-44">
          <mxGeometry width="160" relative="1" as="geometry">
            <mxPoint x="180" y="480" as="sourcePoint" />
            <mxPoint x="340" y="480" as="targetPoint" />
          </mxGeometry>
        </mxCell>
        <mxCell id="rFGjbduHnqt6QD3G2l7F-47" value="DR_Dummy" style="swimlane;fontStyle=0;childLayout=stackLayout;horizontal=1;startSize=26;fillColor=none;horizontalStack=0;resizeParent=1;resizeParentMax=0;resizeLast=0;collapsible=1;marginBottom=0;whiteSpace=wrap;html=1;" vertex="1" parent="1">
          <mxGeometry x="10" y="620" width="140" height="52" as="geometry" />
        </mxCell>
        <mxCell id="rFGjbduHnqt6QD3G2l7F-48" value="--------------------------------" style="text;strokeColor=none;fillColor=none;align=left;verticalAlign=top;spacingLeft=4;spacingRight=4;overflow=hidden;rotatable=0;points=[[0,0.5],[1,0.5]];portConstraint=eastwest;whiteSpace=wrap;html=1;" vertex="1" parent="rFGjbduHnqt6QD3G2l7F-47">
          <mxGeometry y="26" width="140" height="26" as="geometry" />
        </mxCell>
        <mxCell id="rFGjbduHnqt6QD3G2l7F-49" value="" style="endArrow=diamondThin;endFill=0;endSize=24;html=1;rounded=0;" edge="1" parent="1" source="rFGjbduHnqt6QD3G2l7F-37" target="rFGjbduHnqt6QD3G2l7F-47">
          <mxGeometry width="160" relative="1" as="geometry">
            <mxPoint x="180" y="480" as="sourcePoint" />
            <mxPoint x="340" y="480" as="targetPoint" />
          </mxGeometry>
        </mxCell>
        <mxCell id="rFGjbduHnqt6QD3G2l7F-50" value="DR_Network" style="swimlane;fontStyle=0;childLayout=stackLayout;horizontal=1;startSize=26;fillColor=none;horizontalStack=0;resizeParent=1;resizeParentMax=0;resizeLast=0;collapsible=1;marginBottom=0;whiteSpace=wrap;html=1;" vertex="1" parent="1">
          <mxGeometry x="10" y="700" width="140" height="52" as="geometry" />
        </mxCell>
        <mxCell id="rFGjbduHnqt6QD3G2l7F-51" value="--------------------------------" style="text;strokeColor=none;fillColor=none;align=left;verticalAlign=top;spacingLeft=4;spacingRight=4;overflow=hidden;rotatable=0;points=[[0,0.5],[1,0.5]];portConstraint=eastwest;whiteSpace=wrap;html=1;" vertex="1" parent="rFGjbduHnqt6QD3G2l7F-50">
          <mxGeometry y="26" width="140" height="26" as="geometry" />
        </mxCell>
        <mxCell id="rFGjbduHnqt6QD3G2l7F-52" value="" style="endArrow=diamondThin;endFill=0;endSize=24;html=1;rounded=0;" edge="1" parent="1" source="rFGjbduHnqt6QD3G2l7F-41" target="rFGjbduHnqt6QD3G2l7F-50">
          <mxGeometry width="160" relative="1" as="geometry">
            <mxPoint x="100" y="540" as="sourcePoint" />
            <mxPoint x="260" y="540" as="targetPoint" />
          </mxGeometry>
        </mxCell>
        <mxCell id="rFGjbduHnqt6QD3G2l7F-53" value="IAzure" style="swimlane;fontStyle=0;childLayout=stackLayout;horizontal=1;startSize=26;fillColor=none;horizontalStack=0;resizeParent=1;resizeParentMax=0;resizeLast=0;collapsible=1;marginBottom=0;whiteSpace=wrap;html=1;" vertex="1" parent="1">
          <mxGeometry x="10" y="460" width="140" height="52" as="geometry" />
        </mxCell>
        <mxCell id="rFGjbduHnqt6QD3G2l7F-54" value="--------------------------------" style="text;strokeColor=none;fillColor=none;align=left;verticalAlign=top;spacingLeft=4;spacingRight=4;overflow=hidden;rotatable=0;points=[[0,0.5],[1,0.5]];portConstraint=eastwest;whiteSpace=wrap;html=1;" vertex="1" parent="rFGjbduHnqt6QD3G2l7F-53">
          <mxGeometry y="26" width="140" height="26" as="geometry" />
        </mxCell>
        <mxCell id="rFGjbduHnqt6QD3G2l7F-56" value="IJsonHandler" style="swimlane;fontStyle=0;childLayout=stackLayout;horizontal=1;startSize=26;fillColor=none;horizontalStack=0;resizeParent=1;resizeParentMax=0;resizeLast=0;collapsible=1;marginBottom=0;whiteSpace=wrap;html=1;" vertex="1" parent="1">
          <mxGeometry x="-240" y="540" width="140" height="52" as="geometry" />
        </mxCell>
        <mxCell id="rFGjbduHnqt6QD3G2l7F-57" value="--------------------------------" style="text;strokeColor=none;fillColor=none;align=left;verticalAlign=top;spacingLeft=4;spacingRight=4;overflow=hidden;rotatable=0;points=[[0,0.5],[1,0.5]];portConstraint=eastwest;whiteSpace=wrap;html=1;" vertex="1" parent="rFGjbduHnqt6QD3G2l7F-56">
          <mxGeometry y="26" width="140" height="26" as="geometry" />
        </mxCell>
        <mxCell id="rFGjbduHnqt6QD3G2l7F-61" value="IDataRetrieval" style="swimlane;fontStyle=0;childLayout=stackLayout;horizontal=1;startSize=26;fillColor=none;horizontalStack=0;resizeParent=1;resizeParentMax=0;resizeLast=0;collapsible=1;marginBottom=0;whiteSpace=wrap;html=1;" vertex="1" parent="1">
          <mxGeometry x="-240" y="610" width="140" height="52" as="geometry" />
        </mxCell>
        <mxCell id="rFGjbduHnqt6QD3G2l7F-62" value="--------------------------------" style="text;strokeColor=none;fillColor=none;align=left;verticalAlign=top;spacingLeft=4;spacingRight=4;overflow=hidden;rotatable=0;points=[[0,0.5],[1,0.5]];portConstraint=eastwest;whiteSpace=wrap;html=1;" vertex="1" parent="rFGjbduHnqt6QD3G2l7F-61">
          <mxGeometry y="26" width="140" height="26" as="geometry" />
        </mxCell>
        <mxCell id="rFGjbduHnqt6QD3G2l7F-65" value="" style="endArrow=classic;html=1;rounded=0;" edge="1" parent="1" source="rFGjbduHnqt6QD3G2l7F-56" target="rFGjbduHnqt6QD3G2l7F-44">
          <mxGeometry width="50" height="50" relative="1" as="geometry">
            <mxPoint x="190" y="500" as="sourcePoint" />
            <mxPoint x="240" y="450" as="targetPoint" />
          </mxGeometry>
        </mxCell>
        <mxCell id="rFGjbduHnqt6QD3G2l7F-66" value="" style="endArrow=classic;html=1;rounded=0;entryX=0;entryY=0.5;entryDx=0;entryDy=0;" edge="1" parent="1" source="rFGjbduHnqt6QD3G2l7F-61" target="rFGjbduHnqt6QD3G2l7F-45">
          <mxGeometry width="50" height="50" relative="1" as="geometry">
            <mxPoint x="190" y="500" as="sourcePoint" />
            <mxPoint x="10" y="580" as="targetPoint" />
            <Array as="points">
              <mxPoint x="-50" y="636" />
              <mxPoint x="-50" y="579" />
            </Array>
          </mxGeometry>
        </mxCell>
        <mxCell id="rFGjbduHnqt6QD3G2l7F-67" value="" style="endArrow=classic;html=1;rounded=0;" edge="1" parent="1" source="rFGjbduHnqt6QD3G2l7F-54" target="rFGjbduHnqt6QD3G2l7F-44">
          <mxGeometry width="50" height="50" relative="1" as="geometry">
            <mxPoint x="190" y="500" as="sourcePoint" />
            <mxPoint x="240" y="450" as="targetPoint" />
          </mxGeometry>
        </mxCell>
        <mxCell id="rFGjbduHnqt6QD3G2l7F-68" value="" style="endArrow=classic;html=1;rounded=0;exitX=1;exitY=0.5;exitDx=0;exitDy=0;" edge="1" parent="1" source="rFGjbduHnqt6QD3G2l7F-62" target="rFGjbduHnqt6QD3G2l7F-47">
          <mxGeometry width="50" height="50" relative="1" as="geometry">
            <mxPoint x="190" y="500" as="sourcePoint" />
            <mxPoint x="240" y="450" as="targetPoint" />
          </mxGeometry>
        </mxCell>
        <mxCell id="rFGjbduHnqt6QD3G2l7F-70" value="" style="endArrow=classic;html=1;rounded=0;exitX=1;exitY=1;exitDx=0;exitDy=0;" edge="1" parent="1" source="rFGjbduHnqt6QD3G2l7F-61" target="rFGjbduHnqt6QD3G2l7F-50">
          <mxGeometry width="50" height="50" relative="1" as="geometry">
            <mxPoint x="-110" y="660" as="sourcePoint" />
            <mxPoint x="220" y="590" as="targetPoint" />
            <Array as="points">
              <mxPoint x="-100" y="726" />
              <mxPoint x="-50" y="726" />
            </Array>
          </mxGeometry>
        </mxCell>
        <mxCell id="rFGjbduHnqt6QD3G2l7F-71" value="" style="endArrow=classic;html=1;rounded=0;entryX=0;entryY=0;entryDx=0;entryDy=0;exitX=1;exitY=0.5;exitDx=0;exitDy=0;" edge="1" parent="1" source="rFGjbduHnqt6QD3G2l7F-57" target="rFGjbduHnqt6QD3G2l7F-47">
          <mxGeometry width="50" height="50" relative="1" as="geometry">
            <mxPoint x="170" y="640" as="sourcePoint" />
            <mxPoint x="-40" y="610" as="targetPoint" />
            <Array as="points">
              <mxPoint x="-70" y="579" />
              <mxPoint x="-70" y="620" />
              <mxPoint x="-30" y="620" />
            </Array>
          </mxGeometry>
        </mxCell>
        <mxCell id="rFGjbduHnqt6QD3G2l7F-72" value="DRInteractor" style="swimlane;fontStyle=0;childLayout=stackLayout;horizontal=1;startSize=26;fillColor=none;horizontalStack=0;resizeParent=1;resizeParentMax=0;resizeLast=0;collapsible=1;marginBottom=0;whiteSpace=wrap;html=1;" vertex="1" parent="1">
          <mxGeometry x="770" y="540" width="140" height="52" as="geometry" />
        </mxCell>
        <mxCell id="rFGjbduHnqt6QD3G2l7F-73" value="--------------------------------" style="text;strokeColor=none;fillColor=none;align=left;verticalAlign=top;spacingLeft=4;spacingRight=4;overflow=hidden;rotatable=0;points=[[0,0.5],[1,0.5]];portConstraint=eastwest;whiteSpace=wrap;html=1;" vertex="1" parent="rFGjbduHnqt6QD3G2l7F-72">
          <mxGeometry y="26" width="140" height="26" as="geometry" />
        </mxCell>
        <mxCell id="rFGjbduHnqt6QD3G2l7F-74" value="" style="endArrow=diamondThin;endFill=0;endSize=24;html=1;rounded=0;entryX=1;entryY=0;entryDx=0;entryDy=0;exitX=0;exitY=0;exitDx=0;exitDy=0;" edge="1" parent="1" source="rFGjbduHnqt6QD3G2l7F-72" target="rFGjbduHnqt6QD3G2l7F-15">
          <mxGeometry width="160" relative="1" as="geometry">
            <mxPoint x="270" y="470" as="sourcePoint" />
            <mxPoint x="430" y="470" as="targetPoint" />
          </mxGeometry>
        </mxCell>
        <mxCell id="rFGjbduHnqt6QD3G2l7F-75" value="IDRHandler" style="swimlane;fontStyle=0;childLayout=stackLayout;horizontal=1;startSize=26;fillColor=none;horizontalStack=0;resizeParent=1;resizeParentMax=0;resizeLast=0;collapsible=1;marginBottom=0;whiteSpace=wrap;html=1;" vertex="1" parent="1">
          <mxGeometry x="990" y="540" width="140" height="52" as="geometry" />
        </mxCell>
        <mxCell id="rFGjbduHnqt6QD3G2l7F-76" value="--------------------------------" style="text;strokeColor=none;fillColor=none;align=left;verticalAlign=top;spacingLeft=4;spacingRight=4;overflow=hidden;rotatable=0;points=[[0,0.5],[1,0.5]];portConstraint=eastwest;whiteSpace=wrap;html=1;" vertex="1" parent="rFGjbduHnqt6QD3G2l7F-75">
          <mxGeometry y="26" width="140" height="26" as="geometry" />
        </mxCell>
        <mxCell id="rFGjbduHnqt6QD3G2l7F-77" value="" style="endArrow=classic;html=1;rounded=0;" edge="1" parent="1" source="rFGjbduHnqt6QD3G2l7F-75" target="rFGjbduHnqt6QD3G2l7F-72">
          <mxGeometry width="50" height="50" relative="1" as="geometry">
            <mxPoint x="620" y="550" as="sourcePoint" />
            <mxPoint x="670" y="500" as="targetPoint" />
          </mxGeometry>
        </mxCell>
        <mxCell id="rFGjbduHnqt6QD3G2l7F-78" value="" style="endArrow=diamondThin;endFill=0;endSize=24;html=1;rounded=0;entryX=1;entryY=0;entryDx=0;entryDy=0;exitX=0;exitY=0.25;exitDx=0;exitDy=0;" edge="1" parent="1" source="rFGjbduHnqt6QD3G2l7F-72" target="rFGjbduHnqt6QD3G2l7F-37">
          <mxGeometry width="160" relative="1" as="geometry">
            <mxPoint x="560" y="520" as="sourcePoint" />
            <mxPoint x="720" y="520" as="targetPoint" />
            <Array as="points">
              <mxPoint x="450" y="550" />
              <mxPoint x="450" y="590" />
              <mxPoint x="430" y="590" />
              <mxPoint x="430" y="620" />
            </Array>
          </mxGeometry>
        </mxCell>
        <mxCell id="rFGjbduHnqt6QD3G2l7F-79" value="" style="endArrow=classic;html=1;rounded=0;" edge="1" parent="1" source="rFGjbduHnqt6QD3G2l7F-61" target="rFGjbduHnqt6QD3G2l7F-75">
          <mxGeometry width="50" height="50" relative="1" as="geometry">
            <mxPoint x="450" y="650" as="sourcePoint" />
            <mxPoint x="500" y="600" as="targetPoint" />
            <Array as="points">
              <mxPoint x="-170" y="780" />
              <mxPoint x="1060" y="780" />
            </Array>
          </mxGeometry>
        </mxCell>
        <mxCell id="rFGjbduHnqt6QD3G2l7F-84" value="AzureFunctionAccess" style="swimlane;fontStyle=0;childLayout=stackLayout;horizontal=1;startSize=26;fillColor=none;horizontalStack=0;resizeParent=1;resizeParentMax=0;resizeLast=0;collapsible=1;marginBottom=0;whiteSpace=wrap;html=1;" vertex="1" parent="1">
          <mxGeometry x="450" y="322" width="140" height="52" as="geometry" />
        </mxCell>
        <mxCell id="rFGjbduHnqt6QD3G2l7F-85" value="--------------------------------" style="text;strokeColor=none;fillColor=none;align=left;verticalAlign=top;spacingLeft=4;spacingRight=4;overflow=hidden;rotatable=0;points=[[0,0.5],[1,0.5]];portConstraint=eastwest;whiteSpace=wrap;html=1;" vertex="1" parent="rFGjbduHnqt6QD3G2l7F-84">
          <mxGeometry y="26" width="140" height="26" as="geometry" />
        </mxCell>
        <mxCell id="rFGjbduHnqt6QD3G2l7F-86" value="" style="endArrow=diamondThin;endFill=0;endSize=24;html=1;rounded=0;entryX=0.5;entryY=0;entryDx=0;entryDy=0;" edge="1" parent="1" source="rFGjbduHnqt6QD3G2l7F-84" target="rFGjbduHnqt6QD3G2l7F-18">
          <mxGeometry width="160" relative="1" as="geometry">
            <mxPoint x="440" y="350" as="sourcePoint" />
            <mxPoint x="600" y="350" as="targetPoint" />
            <Array as="points">
              <mxPoint x="330" y="348" />
            </Array>
          </mxGeometry>
        </mxCell>
        <mxCell id="rFGjbduHnqt6QD3G2l7F-88" value="SensorControl" style="swimlane;fontStyle=0;childLayout=stackLayout;horizontal=1;startSize=26;fillColor=none;horizontalStack=0;resizeParent=1;resizeParentMax=0;resizeLast=0;collapsible=1;marginBottom=0;whiteSpace=wrap;html=1;" vertex="1" parent="1">
          <mxGeometry x="-80" y="390" width="140" height="52" as="geometry" />
        </mxCell>
        <mxCell id="rFGjbduHnqt6QD3G2l7F-89" value="--------------------------------" style="text;strokeColor=none;fillColor=none;align=left;verticalAlign=top;spacingLeft=4;spacingRight=4;overflow=hidden;rotatable=0;points=[[0,0.5],[1,0.5]];portConstraint=eastwest;whiteSpace=wrap;html=1;" vertex="1" parent="rFGjbduHnqt6QD3G2l7F-88">
          <mxGeometry y="26" width="140" height="26" as="geometry" />
        </mxCell>
        <mxCell id="rFGjbduHnqt6QD3G2l7F-90" value="" style="endArrow=diamondThin;endFill=0;endSize=24;html=1;rounded=0;entryX=1;entryY=0.5;entryDx=0;entryDy=0;exitX=0;exitY=0.5;exitDx=0;exitDy=0;" edge="1" parent="1" source="rFGjbduHnqt6QD3G2l7F-19" target="rFGjbduHnqt6QD3G2l7F-89">
          <mxGeometry width="160" relative="1" as="geometry">
            <mxPoint x="310" y="430" as="sourcePoint" />
            <mxPoint x="470" y="430" as="targetPoint" />
          </mxGeometry>
        </mxCell>
        <mxCell id="rFGjbduHnqt6QD3G2l7F-91" value="Azure Functions" style="rounded=1;whiteSpace=wrap;html=1;align=left;fillColor=#64876b;fontColor=#ffffff;strokeColor=#314354;horizontal=1;verticalAlign=top;fontSize=27;fontStyle=5;spacingTop=0;spacing=45;" vertex="1" parent="1">
          <mxGeometry x="1700" y="120" width="1840" height="520" as="geometry" />
        </mxCell>
        <mxCell id="rFGjbduHnqt6QD3G2l7F-94" value="HttpDBItemCreate" style="swimlane;fontStyle=0;childLayout=stackLayout;horizontal=1;startSize=26;fillColor=none;horizontalStack=0;resizeParent=1;resizeParentMax=0;resizeLast=0;collapsible=1;marginBottom=0;whiteSpace=wrap;html=1;" vertex="1" parent="1">
          <mxGeometry x="1970" y="442" width="140" height="52" as="geometry" />
        </mxCell>
        <mxCell id="rFGjbduHnqt6QD3G2l7F-95" value="--------------------------------" style="text;strokeColor=none;fillColor=none;align=left;verticalAlign=top;spacingLeft=4;spacingRight=4;overflow=hidden;rotatable=0;points=[[0,0.5],[1,0.5]];portConstraint=eastwest;whiteSpace=wrap;html=1;" vertex="1" parent="rFGjbduHnqt6QD3G2l7F-94">
          <mxGeometry y="26" width="140" height="26" as="geometry" />
        </mxCell>
        <mxCell id="rFGjbduHnqt6QD3G2l7F-96" value="HttpDBItemUpdate" style="swimlane;fontStyle=0;childLayout=stackLayout;horizontal=1;startSize=26;fillColor=none;horizontalStack=0;resizeParent=1;resizeParentMax=0;resizeLast=0;collapsible=1;marginBottom=0;whiteSpace=wrap;html=1;" vertex="1" parent="1">
          <mxGeometry x="2130" y="442" width="140" height="52" as="geometry" />
        </mxCell>
        <mxCell id="rFGjbduHnqt6QD3G2l7F-97" value="--------------------------------" style="text;strokeColor=none;fillColor=none;align=left;verticalAlign=top;spacingLeft=4;spacingRight=4;overflow=hidden;rotatable=0;points=[[0,0.5],[1,0.5]];portConstraint=eastwest;whiteSpace=wrap;html=1;" vertex="1" parent="rFGjbduHnqt6QD3G2l7F-96">
          <mxGeometry y="26" width="140" height="26" as="geometry" />
        </mxCell>
        <mxCell id="rFGjbduHnqt6QD3G2l7F-98" value="HttpDBItemDelete" style="swimlane;fontStyle=0;childLayout=stackLayout;horizontal=1;startSize=26;fillColor=none;horizontalStack=0;resizeParent=1;resizeParentMax=0;resizeLast=0;collapsible=1;marginBottom=0;whiteSpace=wrap;html=1;" vertex="1" parent="1">
          <mxGeometry x="2300" y="442" width="140" height="52" as="geometry" />
        </mxCell>
        <mxCell id="rFGjbduHnqt6QD3G2l7F-99" value="--------------------------------" style="text;strokeColor=none;fillColor=none;align=left;verticalAlign=top;spacingLeft=4;spacingRight=4;overflow=hidden;rotatable=0;points=[[0,0.5],[1,0.5]];portConstraint=eastwest;whiteSpace=wrap;html=1;" vertex="1" parent="rFGjbduHnqt6QD3G2l7F-98">
          <mxGeometry y="26" width="140" height="26" as="geometry" />
        </mxCell>
        <mxCell id="rFGjbduHnqt6QD3G2l7F-100" value="HttpDBItemRead" style="swimlane;fontStyle=0;childLayout=stackLayout;horizontal=1;startSize=26;fillColor=none;horizontalStack=0;resizeParent=1;resizeParentMax=0;resizeLast=0;collapsible=1;marginBottom=0;whiteSpace=wrap;html=1;" vertex="1" parent="1">
          <mxGeometry x="1800" y="442" width="140" height="52" as="geometry" />
        </mxCell>
        <mxCell id="rFGjbduHnqt6QD3G2l7F-101" value="--------------------------------" style="text;strokeColor=none;fillColor=none;align=left;verticalAlign=top;spacingLeft=4;spacingRight=4;overflow=hidden;rotatable=0;points=[[0,0.5],[1,0.5]];portConstraint=eastwest;whiteSpace=wrap;html=1;" vertex="1" parent="rFGjbduHnqt6QD3G2l7F-100">
          <mxGeometry y="26" width="140" height="26" as="geometry" />
        </mxCell>
        <mxCell id="rFGjbduHnqt6QD3G2l7F-110" value="ModelDBAccountInfo" style="swimlane;fontStyle=0;childLayout=stackLayout;horizontal=1;startSize=26;fillColor=none;horizontalStack=0;resizeParent=1;resizeParentMax=0;resizeLast=0;collapsible=1;marginBottom=0;whiteSpace=wrap;html=1;" vertex="1" parent="1">
          <mxGeometry x="2130" y="530" width="140" height="52" as="geometry" />
        </mxCell>
        <mxCell id="rFGjbduHnqt6QD3G2l7F-111" value="--------------------------------" style="text;strokeColor=none;fillColor=none;align=left;verticalAlign=top;spacingLeft=4;spacingRight=4;overflow=hidden;rotatable=0;points=[[0,0.5],[1,0.5]];portConstraint=eastwest;whiteSpace=wrap;html=1;" vertex="1" parent="rFGjbduHnqt6QD3G2l7F-110">
          <mxGeometry y="26" width="140" height="26" as="geometry" />
        </mxCell>
        <mxCell id="rFGjbduHnqt6QD3G2l7F-112" value="" style="endArrow=diamondThin;endFill=0;endSize=24;html=1;rounded=0;" edge="1" parent="1" source="rFGjbduHnqt6QD3G2l7F-110" target="rFGjbduHnqt6QD3G2l7F-100">
          <mxGeometry width="160" relative="1" as="geometry">
            <mxPoint x="2100" y="250" as="sourcePoint" />
            <mxPoint x="2260" y="250" as="targetPoint" />
            <Array as="points">
              <mxPoint x="1870" y="556" />
            </Array>
          </mxGeometry>
        </mxCell>
        <mxCell id="rFGjbduHnqt6QD3G2l7F-114" value="" style="endArrow=diamondThin;endFill=0;endSize=24;html=1;rounded=0;exitX=0;exitY=0;exitDx=0;exitDy=0;" edge="1" parent="1" source="rFGjbduHnqt6QD3G2l7F-110" target="rFGjbduHnqt6QD3G2l7F-94">
          <mxGeometry width="160" relative="1" as="geometry">
            <mxPoint x="2100" y="250" as="sourcePoint" />
            <mxPoint x="2260" y="250" as="targetPoint" />
            <Array as="points">
              <mxPoint x="2040" y="530" />
            </Array>
          </mxGeometry>
        </mxCell>
        <mxCell id="rFGjbduHnqt6QD3G2l7F-115" value="" style="endArrow=diamondThin;endFill=0;endSize=24;html=1;rounded=0;" edge="1" parent="1" source="rFGjbduHnqt6QD3G2l7F-110" target="rFGjbduHnqt6QD3G2l7F-96">
          <mxGeometry width="160" relative="1" as="geometry">
            <mxPoint x="2100" y="250" as="sourcePoint" />
            <mxPoint x="2260" y="250" as="targetPoint" />
          </mxGeometry>
        </mxCell>
        <mxCell id="rFGjbduHnqt6QD3G2l7F-116" value="" style="endArrow=diamondThin;endFill=0;endSize=24;html=1;rounded=0;exitX=1;exitY=0;exitDx=0;exitDy=0;" edge="1" parent="1" source="rFGjbduHnqt6QD3G2l7F-110" target="rFGjbduHnqt6QD3G2l7F-98">
          <mxGeometry width="160" relative="1" as="geometry">
            <mxPoint x="2100" y="250" as="sourcePoint" />
            <mxPoint x="2260" y="250" as="targetPoint" />
            <Array as="points">
              <mxPoint x="2370" y="530" />
            </Array>
          </mxGeometry>
        </mxCell>
        <mxCell id="rFGjbduHnqt6QD3G2l7F-117" value="ModelDBItemRead" style="swimlane;fontStyle=0;childLayout=stackLayout;horizontal=1;startSize=26;fillColor=none;horizontalStack=0;resizeParent=1;resizeParentMax=0;resizeLast=0;collapsible=1;marginBottom=0;whiteSpace=wrap;html=1;" vertex="1" parent="1">
          <mxGeometry x="1800" y="350" width="140" height="52" as="geometry" />
        </mxCell>
        <mxCell id="rFGjbduHnqt6QD3G2l7F-118" value="--------------------------------" style="text;strokeColor=none;fillColor=none;align=left;verticalAlign=top;spacingLeft=4;spacingRight=4;overflow=hidden;rotatable=0;points=[[0,0.5],[1,0.5]];portConstraint=eastwest;whiteSpace=wrap;html=1;" vertex="1" parent="rFGjbduHnqt6QD3G2l7F-117">
          <mxGeometry y="26" width="140" height="26" as="geometry" />
        </mxCell>
        <mxCell id="rFGjbduHnqt6QD3G2l7F-119" value="" style="endArrow=diamondThin;endFill=0;endSize=24;html=1;rounded=0;" edge="1" parent="1" source="rFGjbduHnqt6QD3G2l7F-100" target="rFGjbduHnqt6QD3G2l7F-117">
          <mxGeometry width="160" relative="1" as="geometry">
            <mxPoint x="2230" y="210" as="sourcePoint" />
            <mxPoint x="2390" y="210" as="targetPoint" />
          </mxGeometry>
        </mxCell>
        <mxCell id="rFGjbduHnqt6QD3G2l7F-120" value="ModelConnect" style="swimlane;fontStyle=0;childLayout=stackLayout;horizontal=1;startSize=26;fillColor=none;horizontalStack=0;resizeParent=1;resizeParentMax=0;resizeLast=0;collapsible=1;marginBottom=0;whiteSpace=wrap;html=1;" vertex="1" parent="1">
          <mxGeometry x="2130" y="220" width="140" height="52" as="geometry" />
        </mxCell>
        <mxCell id="rFGjbduHnqt6QD3G2l7F-121" value="--------------------------------" style="text;strokeColor=none;fillColor=none;align=left;verticalAlign=top;spacingLeft=4;spacingRight=4;overflow=hidden;rotatable=0;points=[[0,0.5],[1,0.5]];portConstraint=eastwest;whiteSpace=wrap;html=1;" vertex="1" parent="rFGjbduHnqt6QD3G2l7F-120">
          <mxGeometry y="26" width="140" height="26" as="geometry" />
        </mxCell>
        <mxCell id="rFGjbduHnqt6QD3G2l7F-123" value="" style="endArrow=diamondThin;endFill=0;endSize=24;html=1;rounded=0;" edge="1" parent="1" source="rFGjbduHnqt6QD3G2l7F-117" target="rFGjbduHnqt6QD3G2l7F-120">
          <mxGeometry width="160" relative="1" as="geometry">
            <mxPoint x="2230" y="210" as="sourcePoint" />
            <mxPoint x="2390" y="210" as="targetPoint" />
            <Array as="points">
              <mxPoint x="1870" y="246" />
            </Array>
          </mxGeometry>
        </mxCell>
        <mxCell id="rFGjbduHnqt6QD3G2l7F-125" value="ModelDBItemCreate" style="swimlane;fontStyle=0;childLayout=stackLayout;horizontal=1;startSize=26;fillColor=none;horizontalStack=0;resizeParent=1;resizeParentMax=0;resizeLast=0;collapsible=1;marginBottom=0;whiteSpace=wrap;html=1;" vertex="1" parent="1">
          <mxGeometry x="1970" y="350" width="140" height="52" as="geometry" />
        </mxCell>
        <mxCell id="rFGjbduHnqt6QD3G2l7F-126" value="--------------------------------" style="text;strokeColor=none;fillColor=none;align=left;verticalAlign=top;spacingLeft=4;spacingRight=4;overflow=hidden;rotatable=0;points=[[0,0.5],[1,0.5]];portConstraint=eastwest;whiteSpace=wrap;html=1;" vertex="1" parent="rFGjbduHnqt6QD3G2l7F-125">
          <mxGeometry y="26" width="140" height="26" as="geometry" />
        </mxCell>
        <mxCell id="rFGjbduHnqt6QD3G2l7F-127" value="ModelDBItemUpdate" style="swimlane;fontStyle=0;childLayout=stackLayout;horizontal=1;startSize=26;fillColor=none;horizontalStack=0;resizeParent=1;resizeParentMax=0;resizeLast=0;collapsible=1;marginBottom=0;whiteSpace=wrap;html=1;" vertex="1" parent="1">
          <mxGeometry x="2130" y="350" width="140" height="52" as="geometry" />
        </mxCell>
        <mxCell id="rFGjbduHnqt6QD3G2l7F-128" value="--------------------------------" style="text;strokeColor=none;fillColor=none;align=left;verticalAlign=top;spacingLeft=4;spacingRight=4;overflow=hidden;rotatable=0;points=[[0,0.5],[1,0.5]];portConstraint=eastwest;whiteSpace=wrap;html=1;" vertex="1" parent="rFGjbduHnqt6QD3G2l7F-127">
          <mxGeometry y="26" width="140" height="26" as="geometry" />
        </mxCell>
        <mxCell id="rFGjbduHnqt6QD3G2l7F-129" value="ModelDBItemDelete" style="swimlane;fontStyle=0;childLayout=stackLayout;horizontal=1;startSize=26;fillColor=none;horizontalStack=0;resizeParent=1;resizeParentMax=0;resizeLast=0;collapsible=1;marginBottom=0;whiteSpace=wrap;html=1;" vertex="1" parent="1">
          <mxGeometry x="2300" y="350" width="140" height="52" as="geometry" />
        </mxCell>
        <mxCell id="rFGjbduHnqt6QD3G2l7F-130" value="--------------------------------" style="text;strokeColor=none;fillColor=none;align=left;verticalAlign=top;spacingLeft=4;spacingRight=4;overflow=hidden;rotatable=0;points=[[0,0.5],[1,0.5]];portConstraint=eastwest;whiteSpace=wrap;html=1;" vertex="1" parent="rFGjbduHnqt6QD3G2l7F-129">
          <mxGeometry y="26" width="140" height="26" as="geometry" />
        </mxCell>
        <mxCell id="rFGjbduHnqt6QD3G2l7F-131" value="" style="endArrow=diamondThin;endFill=0;endSize=24;html=1;rounded=0;" edge="1" parent="1" source="rFGjbduHnqt6QD3G2l7F-94" target="rFGjbduHnqt6QD3G2l7F-125">
          <mxGeometry width="160" relative="1" as="geometry">
            <mxPoint x="2220" y="270" as="sourcePoint" />
            <mxPoint x="2380" y="270" as="targetPoint" />
          </mxGeometry>
        </mxCell>
        <mxCell id="rFGjbduHnqt6QD3G2l7F-132" value="" style="endArrow=diamondThin;endFill=0;endSize=24;html=1;rounded=0;" edge="1" parent="1" source="rFGjbduHnqt6QD3G2l7F-96" target="rFGjbduHnqt6QD3G2l7F-127">
          <mxGeometry width="160" relative="1" as="geometry">
            <mxPoint x="2220" y="270" as="sourcePoint" />
            <mxPoint x="2380" y="270" as="targetPoint" />
          </mxGeometry>
        </mxCell>
        <mxCell id="rFGjbduHnqt6QD3G2l7F-133" value="" style="endArrow=diamondThin;endFill=0;endSize=24;html=1;rounded=0;" edge="1" parent="1" source="rFGjbduHnqt6QD3G2l7F-98" target="rFGjbduHnqt6QD3G2l7F-129">
          <mxGeometry width="160" relative="1" as="geometry">
            <mxPoint x="2220" y="270" as="sourcePoint" />
            <mxPoint x="2380" y="270" as="targetPoint" />
          </mxGeometry>
        </mxCell>
        <mxCell id="rFGjbduHnqt6QD3G2l7F-134" value="" style="endArrow=diamondThin;endFill=0;endSize=24;html=1;rounded=0;entryX=0;entryY=0.5;entryDx=0;entryDy=0;" edge="1" parent="1" source="rFGjbduHnqt6QD3G2l7F-125" target="rFGjbduHnqt6QD3G2l7F-121">
          <mxGeometry width="160" relative="1" as="geometry">
            <mxPoint x="2220" y="270" as="sourcePoint" />
            <mxPoint x="2380" y="270" as="targetPoint" />
            <Array as="points">
              <mxPoint x="2040" y="259" />
            </Array>
          </mxGeometry>
        </mxCell>
        <mxCell id="rFGjbduHnqt6QD3G2l7F-135" value="" style="endArrow=diamondThin;endFill=0;endSize=24;html=1;rounded=0;" edge="1" parent="1" source="rFGjbduHnqt6QD3G2l7F-127" target="rFGjbduHnqt6QD3G2l7F-120">
          <mxGeometry width="160" relative="1" as="geometry">
            <mxPoint x="2220" y="270" as="sourcePoint" />
            <mxPoint x="2380" y="270" as="targetPoint" />
          </mxGeometry>
        </mxCell>
        <mxCell id="rFGjbduHnqt6QD3G2l7F-136" value="" style="endArrow=diamondThin;endFill=0;endSize=24;html=1;rounded=0;" edge="1" parent="1" source="rFGjbduHnqt6QD3G2l7F-129" target="rFGjbduHnqt6QD3G2l7F-120">
          <mxGeometry width="160" relative="1" as="geometry">
            <mxPoint x="2220" y="270" as="sourcePoint" />
            <mxPoint x="1720" y="100" as="targetPoint" />
            <Array as="points">
              <mxPoint x="2370" y="250" />
            </Array>
          </mxGeometry>
        </mxCell>
        <mxCell id="rFGjbduHnqt6QD3G2l7F-138" value="" style="endArrow=classic;startArrow=classic;html=1;rounded=0;" edge="1" parent="1" source="rFGjbduHnqt6QD3G2l7F-120" target="rFGjbduHnqt6QD3G2l7F-178">
          <mxGeometry width="50" height="50" relative="1" as="geometry">
            <mxPoint x="2030" y="220" as="sourcePoint" />
            <mxPoint x="2080" y="170" as="targetPoint" />
            <Array as="points">
              <mxPoint x="2200" y="-10" />
              <mxPoint x="3710" y="-10" />
            </Array>
          </mxGeometry>
        </mxCell>
        <mxCell id="rFGjbduHnqt6QD3G2l7F-139" value="ModelDBTableDelete" style="swimlane;fontStyle=0;childLayout=stackLayout;horizontal=1;startSize=26;fillColor=none;horizontalStack=0;resizeParent=1;resizeParentMax=0;resizeLast=0;collapsible=1;marginBottom=0;whiteSpace=wrap;html=1;" vertex="1" parent="1">
          <mxGeometry x="2990" y="350" width="140" height="52" as="geometry" />
        </mxCell>
        <mxCell id="rFGjbduHnqt6QD3G2l7F-140" value="--------------------------------" style="text;strokeColor=none;fillColor=none;align=left;verticalAlign=top;spacingLeft=4;spacingRight=4;overflow=hidden;rotatable=0;points=[[0,0.5],[1,0.5]];portConstraint=eastwest;whiteSpace=wrap;html=1;" vertex="1" parent="rFGjbduHnqt6QD3G2l7F-139">
          <mxGeometry y="26" width="140" height="26" as="geometry" />
        </mxCell>
        <mxCell id="rFGjbduHnqt6QD3G2l7F-141" value="ModelDBTableUpdate" style="swimlane;fontStyle=0;childLayout=stackLayout;horizontal=1;startSize=26;fillColor=none;horizontalStack=0;resizeParent=1;resizeParentMax=0;resizeLast=0;collapsible=1;marginBottom=0;whiteSpace=wrap;html=1;" vertex="1" parent="1">
          <mxGeometry x="2820" y="350" width="140" height="52" as="geometry" />
        </mxCell>
        <mxCell id="rFGjbduHnqt6QD3G2l7F-142" value="--------------------------------" style="text;strokeColor=none;fillColor=none;align=left;verticalAlign=top;spacingLeft=4;spacingRight=4;overflow=hidden;rotatable=0;points=[[0,0.5],[1,0.5]];portConstraint=eastwest;whiteSpace=wrap;html=1;" vertex="1" parent="rFGjbduHnqt6QD3G2l7F-141">
          <mxGeometry y="26" width="140" height="26" as="geometry" />
        </mxCell>
        <mxCell id="rFGjbduHnqt6QD3G2l7F-143" value="ModelDBTableCreate" style="swimlane;fontStyle=0;childLayout=stackLayout;horizontal=1;startSize=26;fillColor=none;horizontalStack=0;resizeParent=1;resizeParentMax=0;resizeLast=0;collapsible=1;marginBottom=0;whiteSpace=wrap;html=1;" vertex="1" parent="1">
          <mxGeometry x="2660" y="350" width="140" height="52" as="geometry" />
        </mxCell>
        <mxCell id="rFGjbduHnqt6QD3G2l7F-144" value="--------------------------------" style="text;strokeColor=none;fillColor=none;align=left;verticalAlign=top;spacingLeft=4;spacingRight=4;overflow=hidden;rotatable=0;points=[[0,0.5],[1,0.5]];portConstraint=eastwest;whiteSpace=wrap;html=1;" vertex="1" parent="rFGjbduHnqt6QD3G2l7F-143">
          <mxGeometry y="26" width="140" height="26" as="geometry" />
        </mxCell>
        <mxCell id="rFGjbduHnqt6QD3G2l7F-145" value="ModelDBTableRead" style="swimlane;fontStyle=0;childLayout=stackLayout;horizontal=1;startSize=26;fillColor=none;horizontalStack=0;resizeParent=1;resizeParentMax=0;resizeLast=0;collapsible=1;marginBottom=0;whiteSpace=wrap;html=1;" vertex="1" parent="1">
          <mxGeometry x="2480" y="350" width="140" height="52" as="geometry" />
        </mxCell>
        <mxCell id="rFGjbduHnqt6QD3G2l7F-146" value="--------------------------------" style="text;strokeColor=none;fillColor=none;align=left;verticalAlign=top;spacingLeft=4;spacingRight=4;overflow=hidden;rotatable=0;points=[[0,0.5],[1,0.5]];portConstraint=eastwest;whiteSpace=wrap;html=1;" vertex="1" parent="rFGjbduHnqt6QD3G2l7F-145">
          <mxGeometry y="26" width="140" height="26" as="geometry" />
        </mxCell>
        <mxCell id="rFGjbduHnqt6QD3G2l7F-147" value="HttpDBTableRead" style="swimlane;fontStyle=0;childLayout=stackLayout;horizontal=1;startSize=26;fillColor=none;horizontalStack=0;resizeParent=1;resizeParentMax=0;resizeLast=0;collapsible=1;marginBottom=0;whiteSpace=wrap;html=1;" vertex="1" parent="1">
          <mxGeometry x="2480" y="442" width="140" height="52" as="geometry" />
        </mxCell>
        <mxCell id="rFGjbduHnqt6QD3G2l7F-148" value="--------------------------------" style="text;strokeColor=none;fillColor=none;align=left;verticalAlign=top;spacingLeft=4;spacingRight=4;overflow=hidden;rotatable=0;points=[[0,0.5],[1,0.5]];portConstraint=eastwest;whiteSpace=wrap;html=1;" vertex="1" parent="rFGjbduHnqt6QD3G2l7F-147">
          <mxGeometry y="26" width="140" height="26" as="geometry" />
        </mxCell>
        <mxCell id="rFGjbduHnqt6QD3G2l7F-149" value="HttpDBTableCreate" style="swimlane;fontStyle=0;childLayout=stackLayout;horizontal=1;startSize=26;fillColor=none;horizontalStack=0;resizeParent=1;resizeParentMax=0;resizeLast=0;collapsible=1;marginBottom=0;whiteSpace=wrap;html=1;" vertex="1" parent="1">
          <mxGeometry x="2660" y="442" width="140" height="52" as="geometry" />
        </mxCell>
        <mxCell id="rFGjbduHnqt6QD3G2l7F-150" value="--------------------------------" style="text;strokeColor=none;fillColor=none;align=left;verticalAlign=top;spacingLeft=4;spacingRight=4;overflow=hidden;rotatable=0;points=[[0,0.5],[1,0.5]];portConstraint=eastwest;whiteSpace=wrap;html=1;" vertex="1" parent="rFGjbduHnqt6QD3G2l7F-149">
          <mxGeometry y="26" width="140" height="26" as="geometry" />
        </mxCell>
        <mxCell id="rFGjbduHnqt6QD3G2l7F-151" value="HttpDBTableUpdate" style="swimlane;fontStyle=0;childLayout=stackLayout;horizontal=1;startSize=26;fillColor=none;horizontalStack=0;resizeParent=1;resizeParentMax=0;resizeLast=0;collapsible=1;marginBottom=0;whiteSpace=wrap;html=1;" vertex="1" parent="1">
          <mxGeometry x="2820" y="442" width="140" height="52" as="geometry" />
        </mxCell>
        <mxCell id="rFGjbduHnqt6QD3G2l7F-152" value="--------------------------------" style="text;strokeColor=none;fillColor=none;align=left;verticalAlign=top;spacingLeft=4;spacingRight=4;overflow=hidden;rotatable=0;points=[[0,0.5],[1,0.5]];portConstraint=eastwest;whiteSpace=wrap;html=1;" vertex="1" parent="rFGjbduHnqt6QD3G2l7F-151">
          <mxGeometry y="26" width="140" height="26" as="geometry" />
        </mxCell>
        <mxCell id="rFGjbduHnqt6QD3G2l7F-153" value="HttpDBTableDelete" style="swimlane;fontStyle=0;childLayout=stackLayout;horizontal=1;startSize=26;fillColor=none;horizontalStack=0;resizeParent=1;resizeParentMax=0;resizeLast=0;collapsible=1;marginBottom=0;whiteSpace=wrap;html=1;" vertex="1" parent="1">
          <mxGeometry x="2990" y="442" width="140" height="52" as="geometry" />
        </mxCell>
        <mxCell id="rFGjbduHnqt6QD3G2l7F-154" value="--------------------------------" style="text;strokeColor=none;fillColor=none;align=left;verticalAlign=top;spacingLeft=4;spacingRight=4;overflow=hidden;rotatable=0;points=[[0,0.5],[1,0.5]];portConstraint=eastwest;whiteSpace=wrap;html=1;" vertex="1" parent="rFGjbduHnqt6QD3G2l7F-153">
          <mxGeometry y="26" width="140" height="26" as="geometry" />
        </mxCell>
        <mxCell id="rFGjbduHnqt6QD3G2l7F-155" value="" style="endArrow=diamondThin;endFill=0;endSize=24;html=1;rounded=0;" edge="1" parent="1" source="rFGjbduHnqt6QD3G2l7F-147" target="rFGjbduHnqt6QD3G2l7F-145">
          <mxGeometry width="160" relative="1" as="geometry">
            <mxPoint x="2460" y="350" as="sourcePoint" />
            <mxPoint x="2620" y="350" as="targetPoint" />
          </mxGeometry>
        </mxCell>
        <mxCell id="rFGjbduHnqt6QD3G2l7F-156" value="" style="endArrow=diamondThin;endFill=0;endSize=24;html=1;rounded=0;" edge="1" parent="1" source="rFGjbduHnqt6QD3G2l7F-149" target="rFGjbduHnqt6QD3G2l7F-143">
          <mxGeometry width="160" relative="1" as="geometry">
            <mxPoint x="2560" y="452" as="sourcePoint" />
            <mxPoint x="2560" y="412" as="targetPoint" />
          </mxGeometry>
        </mxCell>
        <mxCell id="rFGjbduHnqt6QD3G2l7F-157" value="" style="endArrow=diamondThin;endFill=0;endSize=24;html=1;rounded=0;" edge="1" parent="1" source="rFGjbduHnqt6QD3G2l7F-151" target="rFGjbduHnqt6QD3G2l7F-141">
          <mxGeometry width="160" relative="1" as="geometry">
            <mxPoint x="2740" y="452" as="sourcePoint" />
            <mxPoint x="2740" y="412" as="targetPoint" />
          </mxGeometry>
        </mxCell>
        <mxCell id="rFGjbduHnqt6QD3G2l7F-158" value="" style="endArrow=diamondThin;endFill=0;endSize=24;html=1;rounded=0;" edge="1" parent="1" source="rFGjbduHnqt6QD3G2l7F-153" target="rFGjbduHnqt6QD3G2l7F-139">
          <mxGeometry width="160" relative="1" as="geometry">
            <mxPoint x="2900" y="452" as="sourcePoint" />
            <mxPoint x="2900" y="412" as="targetPoint" />
          </mxGeometry>
        </mxCell>
        <mxCell id="rFGjbduHnqt6QD3G2l7F-159" value="" style="endArrow=diamondThin;endFill=0;endSize=24;html=1;rounded=0;entryX=1;entryY=0.25;entryDx=0;entryDy=0;" edge="1" parent="1" source="rFGjbduHnqt6QD3G2l7F-145" target="rFGjbduHnqt6QD3G2l7F-120">
          <mxGeometry width="160" relative="1" as="geometry">
            <mxPoint x="2380" y="360" as="sourcePoint" />
            <mxPoint x="2280" y="258" as="targetPoint" />
            <Array as="points">
              <mxPoint x="2550" y="233" />
            </Array>
          </mxGeometry>
        </mxCell>
        <mxCell id="rFGjbduHnqt6QD3G2l7F-160" value="" style="endArrow=diamondThin;endFill=0;endSize=24;html=1;rounded=0;entryX=1;entryY=0;entryDx=0;entryDy=0;" edge="1" parent="1" source="rFGjbduHnqt6QD3G2l7F-143" target="rFGjbduHnqt6QD3G2l7F-120">
          <mxGeometry width="160" relative="1" as="geometry">
            <mxPoint x="2460" y="350" as="sourcePoint" />
            <mxPoint x="2620" y="350" as="targetPoint" />
            <Array as="points">
              <mxPoint x="2730" y="220" />
            </Array>
          </mxGeometry>
        </mxCell>
        <mxCell id="rFGjbduHnqt6QD3G2l7F-161" value="" style="endArrow=diamondThin;endFill=0;endSize=24;html=1;rounded=0;entryX=1;entryY=0;entryDx=0;entryDy=0;" edge="1" parent="1" source="rFGjbduHnqt6QD3G2l7F-141" target="rFGjbduHnqt6QD3G2l7F-120">
          <mxGeometry width="160" relative="1" as="geometry">
            <mxPoint x="2280" y="280" as="sourcePoint" />
            <mxPoint x="2440" y="280" as="targetPoint" />
            <Array as="points">
              <mxPoint x="2890" y="190" />
              <mxPoint x="2270" y="190" />
            </Array>
          </mxGeometry>
        </mxCell>
        <mxCell id="rFGjbduHnqt6QD3G2l7F-162" value="" style="endArrow=diamondThin;endFill=0;endSize=24;html=1;rounded=0;entryX=0.75;entryY=0;entryDx=0;entryDy=0;" edge="1" parent="1" source="rFGjbduHnqt6QD3G2l7F-139" target="rFGjbduHnqt6QD3G2l7F-120">
          <mxGeometry width="160" relative="1" as="geometry">
            <mxPoint x="2660" y="310" as="sourcePoint" />
            <mxPoint x="2820" y="310" as="targetPoint" />
            <Array as="points">
              <mxPoint x="3060" y="170" />
              <mxPoint x="2235" y="170" />
            </Array>
          </mxGeometry>
        </mxCell>
        <mxCell id="rFGjbduHnqt6QD3G2l7F-163" value="" style="endArrow=diamondThin;endFill=0;endSize=24;html=1;rounded=0;exitX=1;exitY=0.25;exitDx=0;exitDy=0;" edge="1" parent="1" source="rFGjbduHnqt6QD3G2l7F-110" target="rFGjbduHnqt6QD3G2l7F-147">
          <mxGeometry width="160" relative="1" as="geometry">
            <mxPoint x="2470" y="420" as="sourcePoint" />
            <mxPoint x="2630" y="420" as="targetPoint" />
            <Array as="points">
              <mxPoint x="2550" y="543" />
            </Array>
          </mxGeometry>
        </mxCell>
        <mxCell id="rFGjbduHnqt6QD3G2l7F-164" value="" style="endArrow=diamondThin;endFill=0;endSize=24;html=1;rounded=0;exitX=1;exitY=0.5;exitDx=0;exitDy=0;" edge="1" parent="1" source="rFGjbduHnqt6QD3G2l7F-110" target="rFGjbduHnqt6QD3G2l7F-149">
          <mxGeometry width="160" relative="1" as="geometry">
            <mxPoint x="2470" y="420" as="sourcePoint" />
            <mxPoint x="2630" y="420" as="targetPoint" />
            <Array as="points">
              <mxPoint x="2730" y="556" />
            </Array>
          </mxGeometry>
        </mxCell>
        <mxCell id="rFGjbduHnqt6QD3G2l7F-165" value="" style="endArrow=diamondThin;endFill=0;endSize=24;html=1;rounded=0;exitX=1;exitY=0.5;exitDx=0;exitDy=0;" edge="1" parent="1" source="rFGjbduHnqt6QD3G2l7F-111" target="rFGjbduHnqt6QD3G2l7F-151">
          <mxGeometry width="160" relative="1" as="geometry">
            <mxPoint x="2470" y="420" as="sourcePoint" />
            <mxPoint x="2630" y="420" as="targetPoint" />
            <Array as="points">
              <mxPoint x="2890" y="570" />
            </Array>
          </mxGeometry>
        </mxCell>
        <mxCell id="rFGjbduHnqt6QD3G2l7F-166" value="" style="endArrow=diamondThin;endFill=0;endSize=24;html=1;rounded=0;exitX=1;exitY=1.004;exitDx=0;exitDy=0;exitPerimeter=0;" edge="1" parent="1" source="rFGjbduHnqt6QD3G2l7F-111" target="rFGjbduHnqt6QD3G2l7F-153">
          <mxGeometry width="160" relative="1" as="geometry">
            <mxPoint x="2470" y="420" as="sourcePoint" />
            <mxPoint x="2630" y="420" as="targetPoint" />
            <Array as="points">
              <mxPoint x="3060" y="582" />
            </Array>
          </mxGeometry>
        </mxCell>
        <mxCell id="rFGjbduHnqt6QD3G2l7F-167" value="" style="endArrow=classic;startArrow=classic;html=1;rounded=0;exitX=1;exitY=0;exitDx=0;exitDy=0;" edge="1" parent="1" source="rFGjbduHnqt6QD3G2l7F-44" target="rFGjbduHnqt6QD3G2l7F-100">
          <mxGeometry width="50" height="50" relative="1" as="geometry">
            <mxPoint x="400" y="650" as="sourcePoint" />
            <mxPoint x="450" y="600" as="targetPoint" />
            <Array as="points">
              <mxPoint x="220" y="540" />
              <mxPoint x="220" y="468" />
            </Array>
          </mxGeometry>
        </mxCell>
        <mxCell id="rFGjbduHnqt6QD3G2l7F-170" value="EGEDBTableDelete" style="swimlane;fontStyle=0;childLayout=stackLayout;horizontal=1;startSize=26;fillColor=none;horizontalStack=0;resizeParent=1;resizeParentMax=0;resizeLast=0;collapsible=1;marginBottom=0;whiteSpace=wrap;html=1;" vertex="1" parent="1">
          <mxGeometry x="3180" y="442" width="140" height="52" as="geometry" />
        </mxCell>
        <mxCell id="rFGjbduHnqt6QD3G2l7F-171" value="--------------------------------" style="text;strokeColor=none;fillColor=none;align=left;verticalAlign=top;spacingLeft=4;spacingRight=4;overflow=hidden;rotatable=0;points=[[0,0.5],[1,0.5]];portConstraint=eastwest;whiteSpace=wrap;html=1;" vertex="1" parent="rFGjbduHnqt6QD3G2l7F-170">
          <mxGeometry y="26" width="140" height="26" as="geometry" />
        </mxCell>
        <mxCell id="rFGjbduHnqt6QD3G2l7F-172" value="" style="endArrow=diamondThin;endFill=0;endSize=24;html=1;rounded=0;" edge="1" parent="1" source="rFGjbduHnqt6QD3G2l7F-170" target="rFGjbduHnqt6QD3G2l7F-117">
          <mxGeometry width="160" relative="1" as="geometry">
            <mxPoint x="2840" y="550" as="sourcePoint" />
            <mxPoint x="3000" y="550" as="targetPoint" />
            <Array as="points">
              <mxPoint x="3250" y="610" />
              <mxPoint x="1760" y="610" />
              <mxPoint x="1760" y="376" />
            </Array>
          </mxGeometry>
        </mxCell>
        <mxCell id="rFGjbduHnqt6QD3G2l7F-177" value="" style="endArrow=classic;startArrow=classic;html=1;rounded=0;" edge="1" parent="1" source="rFGjbduHnqt6QD3G2l7F-179" target="rFGjbduHnqt6QD3G2l7F-170">
          <mxGeometry width="50" height="50" relative="1" as="geometry">
            <mxPoint x="3580" y="374.7925531914889" as="sourcePoint" />
            <mxPoint x="3280" y="480" as="targetPoint" />
          </mxGeometry>
        </mxCell>
        <mxCell id="rFGjbduHnqt6QD3G2l7F-178" value="Database" style="rounded=1;whiteSpace=wrap;html=1;align=center;fillColor=#6666FF;fontColor=#ffffff;strokeColor=#314354;horizontal=1;verticalAlign=middle;fontSize=27;fontStyle=5;spacingTop=0;spacing=45;" vertex="1" parent="1">
          <mxGeometry x="3570" y="136" width="280" height="200" as="geometry" />
        </mxCell>
        <mxCell id="rFGjbduHnqt6QD3G2l7F-179" value="IOT hub" style="rounded=1;whiteSpace=wrap;html=1;align=center;fillColor=#6666FF;fontColor=#ffffff;strokeColor=#314354;horizontal=1;verticalAlign=middle;fontSize=27;fontStyle=5;spacingTop=0;spacing=45;" vertex="1" parent="1">
          <mxGeometry x="3570" y="382" width="280" height="210" as="geometry" />
        </mxCell>
        <mxCell id="rFGjbduHnqt6QD3G2l7F-180" value="Raspberry Pi" style="rounded=1;whiteSpace=wrap;html=1;align=center;fillColor=#6666FF;fontColor=#ffffff;strokeColor=#314354;horizontal=1;verticalAlign=middle;fontSize=27;fontStyle=5;spacingTop=0;spacing=45;" vertex="1" parent="1">
          <mxGeometry x="4200" y="390" width="280" height="210" as="geometry" />
        </mxCell>
        <mxCell id="rFGjbduHnqt6QD3G2l7F-181" value="" style="endArrow=classic;startArrow=classic;html=1;rounded=0;" edge="1" parent="1" source="rFGjbduHnqt6QD3G2l7F-180" target="rFGjbduHnqt6QD3G2l7F-179">
          <mxGeometry width="50" height="50" relative="1" as="geometry">
            <mxPoint x="3960" y="540" as="sourcePoint" />
            <mxPoint x="4010" y="490" as="targetPoint" />
          </mxGeometry>
        </mxCell>
        <mxCell id="rFGjbduHnqt6QD3G2l7F-182" value="Python Simulated Code" style="rounded=1;whiteSpace=wrap;html=1;align=left;fillColor=#009999;fontColor=#ffffff;strokeColor=#314354;horizontal=1;verticalAlign=top;fontSize=27;fontStyle=5;spacingTop=0;spacing=45;" vertex="1" parent="1">
          <mxGeometry x="1790" y="940" width="1530" height="830" as="geometry" />
        </mxCell>
      </root>
    </mxGraphModel>
  </diagram>
</mxfile>
